<svg width="130" height="130" viewBox="0 0 130 130" fill="none" xmlns="http://www.w3.org/2000/svg">
<circle cx="65" cy="65" r="65" fill="white"/>
<circle cx="28" cy="85" r="5" fill="#BDD9F2"/>
<circle cx="28" cy="85" r="5" stroke="#BDD9F2"/>
<circle cx="43" cy="38" r="5" fill="#BDD9F2"/>
<circle cx="43" cy="38" r="5" stroke="#BDD9F2"/>
<circle cx="43" cy="55" r="5" fill="#BDD9F2"/>
<circle cx="43" cy="55" r="5" stroke="#BDD9F2"/>
<circle cx="43" cy="85" r="5" fill="#BDD9F2"/>
<circle cx="43" cy="85" r="5" stroke="#BDD9F2"/>
<circle cx="58" cy="25" r="5" fill="#BDD9F2"/>
<circle cx="58" cy="25" r="5" stroke="#BDD9F2"/>
<circle cx="58" cy="70" r="5" fill="#BDD9F2"/>
<circle cx="58" cy="70" r="5" stroke="#BDD9F2"/>
<circle cx="58" cy="85" r="5" fill="#BDD9F2"/>
<circle cx="58" cy="85" r="5" stroke="#BDD9F2"/>
<circle cx="73" cy="25" r="5" fill="#BDD9F2"/>
<circle cx="73" cy="25" r="5" stroke="#BDD9F2"/>
<circle cx="73" cy="40" r="5" fill="#BDD9F2"/>
<circle cx="73" cy="40" r="5" stroke="#BDD9F2"/>
<circle cx="88" cy="25" r="5" fill="#BDD9F2"/>
<circle cx="88" cy="25" r="5" stroke="#BDD9F2"/>
<circle cx="88" cy="40" r="5" fill="#BDD9F2"/>
<circle cx="88" cy="40" r="5" stroke="#BDD9F2"/>
<circle cx="88" cy="55" r="5" fill="#BDD9F2"/>
<circle cx="88" cy="55" r="5" stroke="#BDD9F2"/>
<circle cx="88" cy="70" r="5" fill="#BDD9F2"/>
<circle cx="88" cy="70" r="5" stroke="#BDD9F2"/>
<circle cx="88" cy="85" r="5" fill="#BDD9F2"/>
<circle cx="88" cy="85" r="5" stroke="#BDD9F2"/>
<circle cx="103" cy="25" r="5" fill="#BDD9F2"/>
<circle cx="103" cy="25" r="5" stroke="#BDD9F2"/>
<circle cx="103" cy="40" r="5" fill="#BDD9F2"/>
<circle cx="103" cy="40" r="5" stroke="#BDD9F2"/>
<circle cx="28" cy="100" r="5" fill="#BDD9F2"/>
<circle cx="28" cy="100" r="5" stroke="#BDD9F2"/>
<circle cx="43" cy="100" r="5" fill="#BDD9F2"/>
<circle cx="43" cy="100" r="5" stroke="#BDD9F2"/>
<circle cx="58" cy="100" r="5" fill="#BDD9F2"/>
<circle cx="58" cy="100" r="5" stroke="#BDD9F2"/>
<circle cx="73" cy="100" r="5" fill="#BDD9F2"/>
<circle cx="73" cy="100" r="5" stroke="#BDD9F2"/>
<circle cx="103" cy="100" r="5" fill="#BDD9F2"/>
<circle cx="103" cy="100" r="5" stroke="#BDD9F2"/>
<line x1="28" y1="25" x2="42" y2="25" stroke="#072E51" stroke-width="2"/>
<line x1="42.6839" y1="25.2705" x2="58.6839" y2="40.2705" stroke="#072E51" stroke-width="2"/>
<line x1="42.2929" y1="70.2929" x2="57.2929" y2="55.2929" stroke="#072E51" stroke-width="2"/>
<line x1="28" y1="70" x2="42" y2="70" stroke="#072E51" stroke-width="2"/>
<line x1="72.7071" y1="85.2929" x2="88.7071" y2="101.293" stroke="#072E51" stroke-width="2"/>
<line x1="103.224" y1="85.1905" x2="88.1905" y2="100.224" stroke="#072E51" stroke-width="2"/>
<line x1="28" y1="71" x2="28" y2="26" stroke="#072E51" stroke-width="2"/>
<line x1="58" y1="56" x2="58" y2="40" stroke="#072E51" stroke-width="2"/>
<line x1="73" y1="87" x2="73" y2="55" stroke="#072E51" stroke-width="2"/>
<line x1="103" y1="87" x2="103" y2="55" stroke="#072E51" stroke-width="2"/>
<circle cx="28" cy="25" r="4" fill="#75AADB" stroke="#072E51" stroke-width="2"/>
<circle cx="28" cy="40" r="4" fill="#75AADB" stroke="#072E51" stroke-width="2"/>
<circle cx="28" cy="55" r="4" fill="#75AADB" stroke="#072E51" stroke-width="2"/>
<circle cx="28" cy="70" r="4" fill="#75AADB" stroke="#072E51" stroke-width="2"/>
<circle cx="43" cy="25" r="4" fill="#75AADB" stroke="#072E51" stroke-width="2"/>
<circle cx="43" cy="70" r="4" fill="#75AADB" stroke="#072E51" stroke-width="2"/>
<circle cx="58" cy="40" r="4" fill="#75AADB" stroke="#072E51" stroke-width="2"/>
<circle cx="58" cy="55" r="4" fill="#75AADB" stroke="#072E51" stroke-width="2"/>
<circle cx="73" cy="55" r="4" fill="#75AADB" stroke="#072E51" stroke-width="2"/>
<circle cx="73" cy="70" r="4" fill="#75AADB" stroke="#072E51" stroke-width="2"/>
<circle cx="73" cy="85" r="4" fill="#75AADB" stroke="#072E51" stroke-width="2"/>
<circle cx="103" cy="55" r="4" fill="#75AADB" stroke="#072E51" stroke-width="2"/>
<circle cx="103" cy="70" r="4" fill="#75AADB" stroke="#072E51" stroke-width="2"/>
<circle cx="103" cy="85" r="4" fill="#75AADB" stroke="#072E51" stroke-width="2"/>
<circle cx="88" cy="100" r="4" fill="#75AADB" stroke="#072E51" stroke-width="2"/>
</svg>
