<svg width="85" height="70" viewBox="0 0 85 70" fill="none" xmlns="http://www.w3.org/2000/svg">
<line x1="5" y1="5" x2="19" y2="5" stroke="white" stroke-width="2"/>
<line x1="19.6839" y1="5.27046" x2="35.6839" y2="20.2705" stroke="white" stroke-width="2"/>
<line x1="19.2929" y1="50.2929" x2="34.2929" y2="35.2929" stroke="white" stroke-width="2"/>
<line x1="5" y1="50" x2="19" y2="50" stroke="white" stroke-width="2"/>
<line x1="49.7071" y1="50.2929" x2="65.7071" y2="66.2929" stroke="white" stroke-width="2"/>
<line x1="80.2238" y1="50.1904" x2="65.1905" y2="65.2237" stroke="white" stroke-width="2"/>
<line x1="5" y1="51" x2="5" y2="6" stroke="white" stroke-width="2"/>
<line x1="35" y1="36" x2="35" y2="20" stroke="white" stroke-width="2"/>
<line x1="50" y1="52" x2="50" y2="20" stroke="white" stroke-width="2"/>
<line x1="80" y1="52" x2="80" y2="20" stroke="white" stroke-width="2"/>
<circle cx="5" cy="5" r="4" fill="#75AADB" stroke="white" stroke-width="2"/>
<circle cx="5" cy="20" r="4" fill="#75AADB" stroke="white" stroke-width="2"/>
<circle cx="5" cy="35" r="4" fill="#75AADB" stroke="white" stroke-width="2"/>
<circle cx="5" cy="50" r="4" fill="#75AADB" stroke="white" stroke-width="2"/>
<circle cx="20" cy="5" r="4" fill="#75AADB" stroke="white" stroke-width="2"/>
<circle cx="20" cy="50" r="4" fill="#75AADB" stroke="white" stroke-width="2"/>
<circle cx="35" cy="20" r="4" fill="#75AADB" stroke="white" stroke-width="2"/>
<circle cx="35" cy="35" r="4" fill="#75AADB" stroke="white" stroke-width="2"/>
<circle cx="50" cy="20" r="4" fill="#75AADB" stroke="white" stroke-width="2"/>
<circle cx="50" cy="35" r="4" fill="#75AADB" stroke="white" stroke-width="2"/>
<circle cx="50" cy="50" r="4" fill="#75AADB" stroke="white" stroke-width="2"/>
<circle cx="80" cy="20" r="4" fill="#75AADB" stroke="white" stroke-width="2"/>
<circle cx="80" cy="35" r="4" fill="#75AADB" stroke="white" stroke-width="2"/>
<circle cx="80" cy="50" r="4" fill="#75AADB" stroke="white" stroke-width="2"/>
<circle cx="65" cy="65" r="4" fill="#75AADB" stroke="white" stroke-width="2"/>
</svg>
